<mxfile host="app.diagrams.net" modified="2022-07-09T10:27:29.150Z" agent="5.0 (Windows NT 10.0; Win64; x64) AppleWebKit/537.36 (KHTML, like Gecko) Chrome/103.0.5060.114 Safari/537.36 Edg/103.0.1264.49" etag="yz4yAwCRft1SoGLaeYSN" version="20.0.4" type="github">
  <diagram id="RZyw4G-o4c_c2s-WrFrg" name="Page-1">
    <mxGraphModel dx="601" dy="752" grid="1" gridSize="10" guides="1" tooltips="1" connect="1" arrows="1" fold="1" page="1" pageScale="1" pageWidth="827" pageHeight="1169" math="0" shadow="0">
      <root>
        <mxCell id="0" />
        <mxCell id="1" parent="0" />
        <mxCell id="ByVQkrCW0zfX2t-rchdg-2" value="" style="verticalLabelPosition=bottom;verticalAlign=top;html=1;shape=mxgraph.basic.patternFillRect;fillStyle=grid;step=5;fillStrokeWidth=0.2;fillStrokeColor=#dddddd;" vertex="1" parent="1">
          <mxGeometry x="170" y="140" width="790" height="150" as="geometry" />
        </mxCell>
        <mxCell id="IyV-ai70B1WYSoMZ3HjI-3" value="" style="edgeStyle=orthogonalEdgeStyle;rounded=0;orthogonalLoop=1;jettySize=auto;html=1;" parent="1" source="IyV-ai70B1WYSoMZ3HjI-1" target="IyV-ai70B1WYSoMZ3HjI-2" edge="1">
          <mxGeometry relative="1" as="geometry" />
        </mxCell>
        <mxCell id="IyV-ai70B1WYSoMZ3HjI-1" value="预编译" style="rounded=0;whiteSpace=wrap;html=1;" parent="1" vertex="1">
          <mxGeometry x="200" y="190" width="120" height="60" as="geometry" />
        </mxCell>
        <mxCell id="IyV-ai70B1WYSoMZ3HjI-5" value="" style="edgeStyle=orthogonalEdgeStyle;rounded=0;orthogonalLoop=1;jettySize=auto;html=1;" parent="1" source="IyV-ai70B1WYSoMZ3HjI-2" target="IyV-ai70B1WYSoMZ3HjI-4" edge="1">
          <mxGeometry relative="1" as="geometry" />
        </mxCell>
        <mxCell id="IyV-ai70B1WYSoMZ3HjI-2" value="编译" style="rounded=0;whiteSpace=wrap;html=1;" parent="1" vertex="1">
          <mxGeometry x="400" y="190" width="120" height="60" as="geometry" />
        </mxCell>
        <mxCell id="IyV-ai70B1WYSoMZ3HjI-7" value="" style="edgeStyle=orthogonalEdgeStyle;rounded=0;orthogonalLoop=1;jettySize=auto;html=1;" parent="1" source="IyV-ai70B1WYSoMZ3HjI-4" target="IyV-ai70B1WYSoMZ3HjI-6" edge="1">
          <mxGeometry relative="1" as="geometry" />
        </mxCell>
        <mxCell id="IyV-ai70B1WYSoMZ3HjI-4" value="汇编" style="rounded=0;whiteSpace=wrap;html=1;" parent="1" vertex="1">
          <mxGeometry x="600" y="190" width="120" height="60" as="geometry" />
        </mxCell>
        <mxCell id="IyV-ai70B1WYSoMZ3HjI-6" value="二进制可重定位的&lt;br&gt;目标文件&lt;br&gt;(*.o / *.obj)" style="rounded=0;whiteSpace=wrap;html=1;" parent="1" vertex="1">
          <mxGeometry x="800" y="190" width="120" height="60" as="geometry" />
        </mxCell>
        <mxCell id="ByVQkrCW0zfX2t-rchdg-1" value="" style="html=1;shadow=0;dashed=0;align=center;verticalAlign=middle;shape=mxgraph.arrows2.arrow;dy=0.6;dx=40;direction=south;notch=0;" vertex="1" parent="1">
          <mxGeometry x="540" y="350" width="70" height="100" as="geometry" />
        </mxCell>
      </root>
    </mxGraphModel>
  </diagram>
</mxfile>
